<?xml version="1.0" encoding="iso-8859-1"?>
<!-- Generator: Adobe Illustrator 16.0.0, SVG Export Plug-In . SVG Version: 6.00 Build 0)  -->
<!DOCTYPE svg PUBLIC "-//W3C//DTD SVG 1.1//EN" "http://www.w3.org/Graphics/SVG/1.1/DTD/svg11.dtd">
<svg version="1.1" id="Capa_1" xmlns="http://www.w3.org/2000/svg" xmlns:xlink="http://www.w3.org/1999/xlink" x="0px" y="0px"
	 width="407.009px" height="407.009px" viewBox="0 0 407.009 407.009" style="enable-background:new 0 0 407.009 407.009;"
	 xml:space="preserve">
<g>
	<path d="M406.082,196.763c-1.753-3.49-5.71-5.494-10.854-5.494h-45.487V138.46c0-5.59-4.55-10.14-10.141-10.14h-67.148
		c-0.757,0-1.397-0.64-1.397-1.397V91.249c0-0.757,0.641-1.397,1.397-1.397h51.411c0.758,0,1.397,0.64,1.397,1.397v9.969
		c0,2.415,1.957,4.371,4.371,4.371c2.415,0,4.372-1.957,4.372-4.371v-9.969c0-5.59-4.55-10.14-10.14-10.14h-51.412
		c-5.59,0-10.14,4.55-10.14,10.14v35.674c0,5.59,4.55,10.14,10.14,10.14h67.148c0.758,0,1.397,0.64,1.397,1.397v52.809h-61.225
		c-9.628,0-17.461,7.834-17.461,17.461v64.316c-6.021-1.884-10.391-7.376-10.391-13.846c0-2.414-1.956-4.371-4.371-4.371
		s-4.371,1.957-4.371,4.371c0,12.842,10.635,23.288,23.705,23.288s23.705-10.448,23.705-23.288c0-2.414-1.956-4.371-4.371-4.371
		s-4.371,1.957-4.371,4.371c0,6.611-4.565,12.198-10.791,13.959v-64.431c0-4.808,3.912-8.719,8.719-8.719h115.453
		c2.104,0,2.941,0.544,3.033,0.657c0.053,0.175-0.012,1.17-1.271,2.857l-78.167,104.9c-3.466,4.652-11.595,8.732-17.398,8.732
		c-0.001,0-0.003,0-0.005,0L90.5,317.041c-5.679-0.004-13.296-4.237-16.297-9.06L9.782,204.445
		c-1.026-1.649-1.201-2.929-0.928-3.419c0.273-0.487,1.45-1.016,3.392-1.016h222.963c2.415,0,4.372-1.957,4.372-4.371
		c0-2.415-1.957-4.372-4.372-4.372H82.21v-64.994c0-2.729,2.221-4.948,4.948-4.948H225.89c2.729,0,4.948,2.221,4.948,4.948v37.893
		c0,2.415,1.957,4.372,4.371,4.372c2.415,0,4.372-1.957,4.372-4.372v-37.891c0-7.549-6.143-13.691-13.691-13.691H87.158
		c-7.548,0-13.691,6.143-13.691,13.691v64.994H12.244c-5.065,0-9.089,2.009-11.035,5.514c-1.946,3.504-1.528,7.979,1.149,12.28
		l64.421,103.536c4.597,7.39,15.015,13.181,23.716,13.184l210.921,0.117c0.003,0,0.005,0,0.009,0c8.569,0,19.29-5.38,24.409-12.25
		l78.167-104.9C407.076,204.625,407.836,200.255,406.082,196.763z"/>
</g>
<g>
</g>
<g>
</g>
<g>
</g>
<g>
</g>
<g>
</g>
<g>
</g>
<g>
</g>
<g>
</g>
<g>
</g>
<g>
</g>
<g>
</g>
<g>
</g>
<g>
</g>
<g>
</g>
<g>
</g>
</svg>
